<svg width="44" height="44" viewBox="0 0 44 44" fill="none" xmlns="http://www.w3.org/2000/svg">
<circle cx="22" cy="22" r="22" fill="black"/>
<path fill-rule="evenodd" clip-rule="evenodd" d="M27.4442 7.85959C27.4442 9.2005 26.852 10.5414 26.0161 11.5089C25.1277 12.5783 23.5952 13.3761 22.376 13.3762C22.2367 13.3762 22.0972 13.3592 22.0102 13.3422C21.9929 13.2744 21.9579 13.0706 21.9579 12.8669C21.9579 11.5089 22.6721 10.168 23.4384 9.31932C24.4137 8.21606 26.0335 7.38429 27.392 7.33334C27.4269 7.48619 27.4442 7.67289 27.4442 7.85959ZM32.2355 16.3063C32.2693 16.2846 32.2925 16.2698 32.3034 16.2615C30.4921 13.7326 27.7402 13.6645 26.9738 13.6644C25.8027 13.6644 24.7545 14.0693 23.8733 14.4097C23.2343 14.6566 22.6831 14.8695 22.2365 14.8695C21.7439 14.8695 21.1798 14.6473 20.5502 14.3994C19.7554 14.0863 18.8564 13.7322 17.8651 13.7322C14.5213 13.7322 11.125 16.4311 11.125 21.5233C11.125 24.6974 12.379 28.0412 13.929 30.1969C15.27 32.0301 16.4369 33.5238 18.1089 33.5238C18.9018 33.5238 19.4832 33.2833 20.0946 33.0304C20.7724 32.75 21.487 32.4544 22.5676 32.4544C23.6586 32.4544 24.3109 32.7319 24.94 32.9996C25.526 33.249 26.092 33.4898 26.9739 33.4898C28.8026 33.4898 30.0044 31.8774 31.1538 30.2648C32.4427 28.4317 32.9826 26.6324 33 26.5476C32.8954 26.5137 29.3948 25.1388 29.3948 21.2518C29.3948 18.1232 31.7795 16.5979 32.2355 16.3063Z" fill="white"/>
</svg>
