<svg width="41" height="42" viewBox="0 0 41 42" fill="none" xmlns="http://www.w3.org/2000/svg">
<path d="M40.375 21.465C40.375 20.1045 40.2556 18.8128 40.0511 17.5556H20.7888V25.3228H31.8177C31.3234 27.8717 29.8745 30.0245 27.7266 31.4884V36.655H34.3065C38.159 33.0556 40.375 27.7511 40.375 21.465Z" fill="#4285F4"/>
<path d="M20.7888 41.6667C26.3118 41.6667 30.9314 39.8067 34.3065 36.655L27.7267 31.4884C25.8857 32.7284 23.5503 33.4861 20.7888 33.4861C15.4534 33.4861 10.9361 29.8522 9.3167 24.9439H2.53229V30.2656C5.8904 37.0167 12.7941 41.6667 20.7888 41.6667Z" fill="#34A853"/>
<path d="M9.31669 24.9439C8.89054 23.7039 8.66893 22.3778 8.66893 21C8.66893 19.6222 8.90758 18.2961 9.31669 17.0561V11.7345H2.53228C1.13449 14.5245 0.333313 17.6589 0.333313 21C0.333313 24.3411 1.13449 27.4756 2.53228 30.2656L9.31669 24.9439Z" fill="#FBBC05"/>
<path d="M20.7888 8.5139C23.806 8.5139 26.4993 9.56446 28.6301 11.6139L34.4599 5.7239C30.9314 2.38279 26.3118 0.333344 20.7888 0.333344C12.7941 0.333344 5.8904 4.98334 2.53229 11.7345L9.3167 17.0561C10.9361 12.1478 15.4534 8.5139 20.7888 8.5139Z" fill="#EA4335"/>
</svg>
