<?xml version="1.0" encoding="UTF-8" standalone="no"?>
<!DOCTYPE svg PUBLIC "-//W3C//DTD SVG 1.1//EN" "http://www.w3.org/Graphics/SVG/1.1/DTD/svg11.dtd">
<svg width="100%" height="100%" fill="white" viewBox="0 0 18 18" version="1.1" xmlns="http://www.w3.org/2000/svg" xmlns:xlink="http://www.w3.org/1999/xlink" xml:space="preserve" xmlns:serif="http://www.serif.com/" style="fill-rule:evenodd;clip-rule:evenodd;stroke-linejoin:round;stroke-miterlimit:2;">
    <g transform="matrix(1,0,0,1,-3,-3)">
        <rect x="0" y="0" width="24" height="24" style="fill:none;fill-rule:nonzero;"/>
    </g>
    <g transform="matrix(1,0,0,1,-3,-3)">
        <path d="M17,8L15.59,9.41L17.17,11L9,11L9,13L17.17,13L15.59,14.58L17,16L21,12L17,8ZM5,5L12,5L12,3L5,3C3.9,3 3,3.9 3,5L3,19C3,20.1 3.9,21 5,21L12,21L12,19L5,19L5,5Z" style="fill-rule:nonzero;"/>
    </g>
</svg>
