<svg width="124" height="123" viewBox="0 0 124 123" fill="none" xmlns="http://www.w3.org/2000/svg">
<path d="M55.7756 30.083L48.2085 37.0195C45.6143 39.3975 45.6143 43.4873 48.2085 45.8653L55.3195 52.3838C56.9338 53.8636 56.5642 56.5019 54.6055 57.4813C53.9384 57.8149 53.1716 57.8639 52.4263 57.8942C46.8408 58.1217 36.4429 67.6113 45.9322 77.1009C56.4403 87.6095 62.9685 76.8772 64.8818 70.0319C64.9875 69.6537 65.1446 69.2928 65.3624 68.9661C66.5281 67.2177 68.9786 66.9211 70.5277 68.3411L78.4212 75.5768C80.8711 77.8225 84.6797 77.649 86.9152 75.1899L91.8164 69.7986C93.875 67.5341 97.4086 67.4498 99.5729 69.6135C100.304 70.3445 100.789 71.2745 101.095 72.2621C102.955 78.2695 108.726 86.4932 118.521 77.1009C129.294 66.7702 117.041 59.4549 110.408 58.1326C109.881 58.0275 109.374 57.8431 108.926 57.5448C107.227 56.4122 106.842 54.078 108.087 52.4596L115.309 43.0712C117.146 40.6825 116.927 37.3014 114.796 35.1703L108.601 28.9758C107.046 27.4209 107.046 24.8999 108.601 23.3449C109.251 22.6949 110.112 22.3028 111.019 22.1545C122.629 20.2567 126.013 10.0551 117.249 3.23771C106.79 -3.07034 100.926 5.31282 99.6566 11.6664C99.4371 12.7652 98.8716 13.7893 97.9393 14.4108C96.563 15.3283 94.739 15.1914 93.5152 14.0788L85.4831 6.77696C83.2549 4.75128 79.8703 4.6911 77.5714 6.63628L69.0449 13.851C66.7984 15.7519 66.5615 18.9859 68.8594 20.8242C70.6565 22.651 71.2358 23.6686 72.5341 23.7001C73.7527 23.7296 75.0017 23.472 76.138 23.9134C84.7329 27.2522 82.5924 34.5042 78.3594 37.3242C71.1157 42.1501 64.3899 37.1483 62.8138 32.6954C62.4941 31.7924 62.1153 30.8834 61.438 30.206C59.8878 28.6558 57.3917 28.6016 55.7756 30.083Z" stroke="black"/>
<path d="M47.3595 44.8242L46.0318 44.2911C43.6804 43.347 40.9895 43.9817 39.3079 45.8771L32.1023 53.9987C30.6651 55.6187 28.0389 55.2373 27.122 53.2754V53.2754C26.8176 52.6242 26.7894 51.8838 26.7849 51.165C26.7497 45.5867 17.5167 34.8669 7.75593 44.1249C-3.02641 54.3519 7.52969 61.1612 14.3221 63.2546C14.6974 63.3702 15.054 63.5368 15.3748 63.7632V63.7632C17.0919 64.9746 17.3236 67.4322 15.8632 68.9432L8.42156 76.6429C6.11195 79.0326 6.18479 82.8444 8.58401 85.1441L13.844 90.186C16.0534 92.3037 16.0444 95.8382 13.8242 97.9447V97.9447C13.0742 98.6563 12.1313 99.1145 11.1428 99.4173C4.93761 101.318 -4.36139 108.117 5.83906 116.688C17.4121 126.413 23.6362 115.578 25.0207 109.081C25.1327 108.555 25.3317 108.053 25.6417 107.613V107.613C26.8188 105.945 29.1624 105.621 30.7474 106.909L39.9417 114.376C42.2811 116.276 45.6668 116.146 47.8534 114.072L54.2094 108.043C55.8048 106.53 58.3249 106.596 59.8383 108.191V108.191C60.4709 108.858 60.8418 109.73 60.958 110.642C62.3888 121.878 70.494 124.358 79.0076 117.918C79.4782 117.562 79.8885 117.113 80.2002 116.612C86.7397 106.098 78.0519 100.829 71.752 99.5386C70.6543 99.3137 69.6475 98.7178 69.0508 97.7693V97.7693C68.17 96.3694 68.355 94.5496 69.4995 93.3556L78.386 84.0846C79.7987 82.6108 80.365 80.5197 79.8892 78.5343L79.3595 76.3242" stroke="black"/>
</svg>
