<?xml version="1.0" encoding="UTF-8"?>
<svg id="Calque_1" data-name="Calque 1" xmlns="http://www.w3.org/2000/svg" viewBox="0 0 654.44 128.57">
  <defs>
    <style>
      .cls-1 {
        fill: #fff;
      }
    </style>
  </defs>
  <path class="cls-1" d="M21.39,0V98.08H0V0H21.39Z"/>
  <path class="cls-1" d="M19.49,67.24c0-4.49,.91-8.68,2.72-12.59,1.81-3.9,4.33-7.28,7.56-10.16,3.23-2.88,7.07-5.14,11.52-6.8,4.45-1.65,9.32-2.48,14.59-2.48s10.03,.81,14.48,2.42c4.45,1.62,8.31,3.86,11.58,6.74,3.27,2.88,5.81,6.31,7.62,10.28,1.81,3.98,2.72,8.37,2.72,13.18s-.93,9.2-2.78,13.18c-1.85,3.98-4.39,7.41-7.62,10.28-3.23,2.88-7.11,5.1-11.64,6.68-4.53,1.57-9.43,2.36-14.71,2.36s-10.01-.79-14.42-2.36-8.21-3.82-11.4-6.74c-3.19-2.91-5.69-6.4-7.5-10.46-1.81-4.06-2.72-8.57-2.72-13.53Zm22.57,.24c0,2.05,.38,3.92,1.13,5.61,.75,1.7,1.73,3.17,2.95,4.43s2.68,2.24,4.37,2.95c1.69,.71,3.49,1.06,5.38,1.06s3.68-.36,5.38-1.06c1.69-.71,3.15-1.69,4.37-2.95,1.22-1.26,2.2-2.74,2.95-4.43,.75-1.69,1.12-3.52,1.12-5.49s-.37-3.68-1.12-5.38c-.75-1.69-1.73-3.17-2.95-4.43-1.22-1.26-2.68-2.24-4.37-2.95-1.7-.71-3.49-1.06-5.38-1.06s-3.68,.36-5.38,1.06c-1.7,.71-3.15,1.7-4.37,2.95-1.22,1.26-2.21,2.72-2.95,4.37-.75,1.65-1.13,3.43-1.13,5.32Z"/>
  <path class="cls-1" d="M103.07,37.46l15.46,31.08,14.65-31.08h23.87l-31.55,60.62h-14.3l-33.24-60.62h25.11Z"/>
  <path class="cls-1" d="M168.98,71.38c0,9.22,4.33,13.83,13,13.83,4.65,0,8.16-1.89,10.52-5.67h20.68c-4.18,13.87-14.62,20.8-31.32,20.8-5.12,0-9.81-.77-14.06-2.3-4.25-1.54-7.9-3.72-10.93-6.56-3.04-2.84-5.38-6.23-7.03-10.17-1.65-3.94-2.48-8.35-2.48-13.23s.79-9.59,2.37-13.65c1.57-4.06,3.82-7.5,6.74-10.34,2.91-2.84,6.44-5.02,10.58-6.56,4.14-1.54,8.81-2.3,14.01-2.3s9.73,.77,13.83,2.3c4.09,1.54,7.56,3.76,10.4,6.68,2.83,2.92,5,6.48,6.5,10.69,1.5,4.22,2.25,8.96,2.25,14.24v2.25h-45.03Zm25.06-12.41c-.71-2.99-2.17-5.4-4.37-7.21-2.21-1.81-4.89-2.72-8.04-2.72-3.31,0-6.01,.87-8.09,2.6-2.09,1.73-3.41,4.18-3.96,7.33h24.46Z"/>
  <path class="cls-1" d="M239.06,55.3v42.78h-21.39V55.3h-7.09v-17.84h7.09V19.26h21.39v18.2h12.17v17.84h-12.17Z"/>
  <path class="cls-1" d="M246.15,67.24c0-4.49,.91-8.68,2.72-12.59,1.81-3.9,4.33-7.28,7.56-10.16,3.23-2.88,7.07-5.14,11.52-6.8,4.45-1.65,9.32-2.48,14.59-2.48s10.03,.81,14.48,2.42c4.45,1.62,8.31,3.86,11.58,6.74,3.27,2.88,5.81,6.31,7.62,10.28,1.81,3.98,2.72,8.37,2.72,13.18s-.93,9.2-2.78,13.18c-1.85,3.98-4.39,7.41-7.62,10.28-3.23,2.88-7.11,5.1-11.64,6.68-4.53,1.57-9.43,2.36-14.71,2.36s-10.01-.79-14.42-2.36-8.21-3.82-11.4-6.74c-3.19-2.91-5.69-6.4-7.5-10.46-1.81-4.06-2.72-8.57-2.72-13.53Zm22.57,.24c0,2.05,.38,3.92,1.13,5.61,.75,1.7,1.73,3.17,2.95,4.43s2.68,2.24,4.37,2.95c1.69,.71,3.49,1.06,5.38,1.06s3.68-.36,5.38-1.06c1.69-.71,3.15-1.69,4.37-2.95,1.22-1.26,2.2-2.74,2.95-4.43,.75-1.69,1.12-3.52,1.12-5.49s-.37-3.68-1.12-5.38c-.75-1.69-1.73-3.17-2.95-4.43-1.22-1.26-2.68-2.24-4.37-2.95-1.7-.71-3.49-1.06-5.38-1.06s-3.68,.36-5.38,1.06c-1.7,.71-3.15,1.7-4.37,2.95-1.22,1.26-2.21,2.72-2.95,4.37-.75,1.65-1.13,3.43-1.13,5.32Z"/>
  <path class="cls-1" d="M380.16,37.46v56.49c0,3.39-.2,6.42-.59,9.1s-.95,5.04-1.65,7.09c-.95,2.6-2.42,5.02-4.43,7.27-2.01,2.25-4.43,4.2-7.27,5.85-2.84,1.65-6.05,2.96-9.63,3.9-3.58,.94-7.47,1.42-11.64,1.42-4.73,0-9.06-.59-13-1.77-3.94-1.18-7.39-2.82-10.34-4.9-2.95-2.09-5.38-4.53-7.27-7.32-1.89-2.8-3.15-5.85-3.78-9.16h24.11c1.49,4.02,4.88,6.03,10.16,6.03,4.49,0,7.94-1.26,10.34-3.78,2.4-2.52,3.6-6.03,3.6-10.52v-5.79c-1.58,1.5-3.09,2.74-4.55,3.72-1.46,.99-2.94,1.79-4.43,2.42-1.5,.63-3.07,1.08-4.73,1.36-1.65,.27-3.47,.41-5.44,.41-4.33,0-8.31-.75-11.93-2.25-3.63-1.49-6.76-3.58-9.4-6.26-2.64-2.68-4.69-5.89-6.15-9.63-1.46-3.74-2.19-7.9-2.19-12.47s.79-8.96,2.37-12.94c1.57-3.98,3.72-7.44,6.44-10.4,2.72-2.95,5.95-5.28,9.69-6.97,3.74-1.69,7.82-2.54,12.23-2.54,7.17,0,13.19,2.68,18.08,8.03v-6.38h21.39Zm-47.98,30.01c0,1.97,.35,3.8,1.06,5.49,.71,1.7,1.67,3.17,2.9,4.43,1.22,1.26,2.68,2.24,4.37,2.95,1.69,.71,3.52,1.06,5.49,1.06s3.68-.35,5.38-1.06c1.69-.71,3.15-1.69,4.37-2.95,1.22-1.26,2.21-2.74,2.96-4.43,.75-1.69,1.12-3.48,1.12-5.38s-.38-3.78-1.12-5.44c-.75-1.65-1.76-3.11-3.01-4.37-1.26-1.26-2.74-2.24-4.43-2.95-1.7-.71-3.45-1.06-5.26-1.06s-3.66,.38-5.32,1.12c-1.65,.75-3.11,1.73-4.37,2.96-1.26,1.22-2.27,2.66-3.01,4.31-.75,1.65-1.12,3.43-1.12,5.32Z"/>
  <path class="cls-1" d="M398.83,71.38c0,9.22,4.33,13.83,13,13.83,4.65,0,8.16-1.89,10.52-5.67h20.68c-4.18,13.87-14.62,20.8-31.32,20.8-5.12,0-9.81-.77-14.06-2.3-4.25-1.54-7.9-3.72-10.93-6.56-3.04-2.84-5.38-6.23-7.03-10.17-1.65-3.94-2.48-8.35-2.48-13.23s.79-9.59,2.37-13.65c1.57-4.06,3.82-7.5,6.74-10.34,2.91-2.84,6.44-5.02,10.58-6.56,4.14-1.54,8.81-2.3,14.01-2.3s9.73,.77,13.83,2.3c4.09,1.54,7.56,3.76,10.4,6.68,2.83,2.92,5,6.48,6.5,10.69,1.5,4.22,2.25,8.96,2.25,14.24v2.25h-45.03Zm25.06-12.41c-.71-2.99-2.17-5.4-4.37-7.21-2.21-1.81-4.89-2.72-8.04-2.72-3.31,0-6.01,.87-8.09,2.6-2.09,1.73-3.41,4.18-3.96,7.33h24.46Z"/>
  <path class="cls-1" d="M471.27,55.3v42.78h-21.39V55.3h-7.09v-17.84h7.09V19.26h21.39v18.2h12.17v17.84h-12.17Z"/>
  <path class="cls-1" d="M482.38,0h21.39V45.14c2.91-3.55,5.87-5.93,8.86-7.15,2.99-1.22,6.5-1.83,10.52-1.83,7.64,0,13.41,2.11,17.31,6.32,3.9,4.22,5.85,9.91,5.85,17.08v38.53h-21.39v-30.61c0-3.07-.24-5.55-.71-7.44-.47-1.89-1.26-3.35-2.36-4.37-1.89-1.65-4.18-2.48-6.85-2.48-3.63,0-6.4,1.08-8.33,3.25-1.93,2.17-2.89,5.26-2.89,9.28v32.38h-21.39V0Z"/>
  <path class="cls-1" d="M565.93,71.38c0,9.22,4.33,13.83,13,13.83,4.65,0,8.16-1.89,10.52-5.67h20.68c-4.18,13.87-14.62,20.8-31.32,20.8-5.12,0-9.81-.77-14.06-2.3-4.25-1.54-7.9-3.72-10.93-6.56-3.04-2.84-5.38-6.23-7.03-10.17-1.65-3.94-2.48-8.35-2.48-13.23s.79-9.59,2.37-13.65c1.57-4.06,3.82-7.5,6.74-10.34,2.91-2.84,6.44-5.02,10.58-6.56,4.14-1.54,8.81-2.3,14.01-2.3s9.73,.77,13.83,2.3c4.09,1.54,7.56,3.76,10.4,6.68,2.83,2.92,5,6.48,6.5,10.69,1.5,4.22,2.25,8.96,2.25,14.24v2.25h-45.03Zm25.06-12.41c-.71-2.99-2.17-5.4-4.37-7.21-2.21-1.81-4.89-2.72-8.04-2.72-3.31,0-6.01,.87-8.09,2.6-2.09,1.73-3.41,4.18-3.96,7.33h24.46Z"/>
  <path class="cls-1" d="M608.95,37.46h21.39v9.92c2.28-3.62,5.08-6.4,8.39-8.33,3.31-1.93,7.17-2.89,11.58-2.89h1.83c.67,0,1.44,.08,2.3,.24v20.44c-2.84-1.42-5.91-2.13-9.22-2.13-4.96,0-8.69,1.48-11.17,4.43-2.48,2.96-3.72,7.27-3.72,12.94v26h-21.39V37.46Z"/>
</svg>